<svg width="16" height="24" viewBox="0 0 16 24" fill="none" xmlns="http://www.w3.org/2000/svg">
<path d="M4.95347 13.9887C5.00801 13.5781 4.71936 13.2011 4.30875 13.1465C3.89814 13.092 3.52107 13.3806 3.46653 13.7913L4.95347 13.9887ZM3 23L2.25653 22.9013C2.21861 23.1867 2.34752 23.4687 2.58822 23.6268C2.82893 23.785 3.13892 23.7913 3.38587 23.6431L3 23ZM8 20L8.38587 19.3569C8.14836 19.2144 7.85164 19.2144 7.61413 19.3569L8 20ZM13 23L12.6141 23.6431C12.8611 23.7913 13.171 23.785 13.4117 23.6269C13.6524 23.4688 13.7814 23.1868 13.7435 22.9014L13 23ZM12.5335 13.7814C12.479 13.3707 12.102 13.082 11.6914 13.1365C11.2807 13.191 10.992 13.568 11.0465 13.9786L12.5335 13.7814ZM14.25 8C14.25 11.4518 11.4518 14.25 8 14.25V15.75C12.2802 15.75 15.75 12.2802 15.75 8H14.25ZM8 14.25C4.54822 14.25 1.75 11.4518 1.75 8H0.25C0.25 12.2802 3.71979 15.75 8 15.75V14.25ZM1.75 8C1.75 4.54822 4.54822 1.75 8 1.75V0.25C3.71979 0.25 0.25 3.71979 0.25 8H1.75ZM8 1.75C11.4518 1.75 14.25 4.54822 14.25 8H15.75C15.75 3.71979 12.2802 0.25 8 0.25V1.75ZM3.46653 13.7913L2.25653 22.9013L3.74347 23.0987L4.95347 13.9887L3.46653 13.7913ZM3.38587 23.6431L8.38587 20.6431L7.61413 19.3569L2.61413 22.3569L3.38587 23.6431ZM7.61413 20.6431L12.6141 23.6431L13.3859 22.3569L8.38587 19.3569L7.61413 20.6431ZM13.7435 22.9014L12.5335 13.7814L11.0465 13.9786L12.2565 23.0986L13.7435 22.9014Z" fill="#CFD3D8"/>
</svg>
